<?xml version="1.0" encoding="utf-8"?>
<!-- Generator: Adobe Illustrator 27.7.0, SVG Export Plug-In . SVG Version: 6.00 Build 0)  -->
<svg version="1.1" id="Layer_1" xmlns="http://www.w3.org/2000/svg" xmlns:xlink="http://www.w3.org/1999/xlink" x="0px" y="0px"
	 viewBox="0 0 15 15" style="enable-background:new 0 0 15 15;" xml:space="preserve">
<style type="text/css">
	.st0{stroke:#000000;stroke-width:0.74;stroke-linecap:round;stroke-miterlimit:10;}
</style>
<path class="st0" d="M3.5,7.1v0.4c0,0.1,0,0.2,0,0.4"/>
<path class="st0" d="M5.5,6.9v0.6c0,0.2,0,0.4,0,0.6"/>
<path class="st0" d="M7.5,2.5v5c0,1.3,0,2.9,0,5"/>
<path class="st0" d="M9.5,0.5v7c0,1.8,0,4.1,0,7"/>
<path class="st0" d="M11.5,1.8v5.7c0,1.5,0,3.3,0,5.7"/>
<path class="st0" d="M13.5,3.5v4c0,1,0,2.3,0,4"/>
<path class="st0" d="M1.5,7.3v0.2c0,0,0,0.1,0,0.2"/>
</svg>
