<?xml version="1.0" encoding="UTF-8"?><svg id="Layer_1" xmlns="http://www.w3.org/2000/svg" viewBox="0 0 15 15"><path d="M3.52,7.13v.37c0,.1,0,.22,0,.37" fill="#f5f5f5" stroke="#f5f5f5" stroke-linecap="round" stroke-miterlimit="10" stroke-width=".74"/><path d="M5.51,6.88v.62c0,.16,0,.36,0,.62" fill="#f5f5f5" stroke="#f5f5f5" stroke-linecap="round" stroke-miterlimit="10" stroke-width=".74"/><path d="M7.5,2.49V7.5c0,1.3,0,2.94,0,5.01" fill="#f5f5f5" stroke="#f5f5f5" stroke-linecap="round" stroke-miterlimit="10" stroke-width=".74"/><path d="M9.49,.52V7.5c0,1.81,0,4.1,0,6.98" fill="#f5f5f5" stroke="#f5f5f5" stroke-linecap="round" stroke-miterlimit="10" stroke-width=".74"/><path d="M11.48,1.83V7.5c0,1.47,0,3.33,0,5.67" fill="#f5f5f5" stroke="#f5f5f5" stroke-linecap="round" stroke-miterlimit="10" stroke-width=".74"/><path d="M13.46,3.52v3.98c0,1.03,0,2.34,0,3.98" fill="#f5f5f5" stroke="#f5f5f5" stroke-linecap="round" stroke-miterlimit="10" stroke-width=".74"/><path d="M1.54,7.32v.18s0,.11,0,.18" fill="#f5f5f5" stroke="#f5f5f5" stroke-linecap="round" stroke-miterlimit="10" stroke-width=".74"/></svg>