<?xml version="1.0" encoding="utf-8"?>
<!-- Generator: Adobe Illustrator 27.7.0, SVG Export Plug-In . SVG Version: 6.00 Build 0)  -->
<svg version="1.1" id="Layer_1" xmlns:serif="http://www.serif.com/"
	 xmlns="http://www.w3.org/2000/svg" xmlns:xlink="http://www.w3.org/1999/xlink" x="0px" y="0px" viewBox="0 0 612 792"
	 style="enable-background:new 0 0 612 792;" xml:space="preserve">
<style type="text/css">
	.st0{fill-rule:evenodd;clip-rule:evenodd;}
</style>
<path class="st0" d="M306,90c168.9,0,306,137.1,306,306S474.9,702,306,702S0,564.9,0,396S137.1,90,306,90z M210.3,568V329h-79.4v239
	H210.3z M496.7,568V431c0-73.4-39.2-107.6-91.5-107.6c-42.1,0-61,23.2-71.6,39.4V329h-79.4c1,22.4,0,239,0,239h79.4V434.5
	c0-7.1,0.5-14.3,2.6-19.4c5.7-14.3,18.8-29,40.8-29c28.7,0,40.2,21.9,40.2,54V568H496.7L496.7,568z M171.1,213.8
	c-27.2,0-45,17.9-45,41.3c0,22.9,17.2,41.3,43.9,41.3h0.5c27.7,0,45-18.4,45-41.3C215.1,231.7,198.3,213.8,171.1,213.8L171.1,213.8z
	"/>
</svg>
