<?xml version="1.0" encoding="utf-8"?>
<!-- Generator: Adobe Illustrator 26.0.1, SVG Export Plug-In . SVG Version: 6.00 Build 0)  -->
<svg version="1.1" id="Layer_1" xmlns:serif="http://www.serif.com/"
	 xmlns="http://www.w3.org/2000/svg" xmlns:xlink="http://www.w3.org/1999/xlink" x="0px" y="0px" viewBox="0 0 1728 1296"
	 style="enable-background:new 0 0 1728 1296;" xml:space="preserve">
<style type="text/css">
	.st0{fill-rule:evenodd;clip-rule:evenodd;fill:#F5F5F5;}
</style>
<path class="st0" d="M864,0c357.6,0,648,290.4,648,648s-290.4,648-648,648s-648-290.4-648-648S506.4,0,864,0z M661.4,1012.2V506.1
	H493.2v506.1H661.4z M1267.9,1012.2V722c0-155.4-83-227.8-193.7-227.8c-89.2,0-129.2,49.1-151.6,83.5v-71.6H754.5
	c2.2,47.5,0,506.1,0,506.1h168.2V729.6c0-15.1,1.1-30.2,5.5-41.1c12.1-30.2,39.8-61.5,86.3-61.5c60.8,0,85.2,46.4,85.2,114.4v270.8
	L1267.9,1012.2L1267.9,1012.2z M578.4,262.1c-57.6,0-95.2,37.8-95.2,87.4c0,48.6,36.5,87.4,92.9,87.4h1.1
	c58.7,0,95.2-38.9,95.2-87.4C671.4,300,635.9,262.1,578.4,262.1L578.4,262.1z"/>
</svg>
