<?xml version="1.0" encoding="utf-8"?>
<!-- Generator: Adobe Illustrator 27.7.0, SVG Export Plug-In . SVG Version: 6.00 Build 0)  -->
<svg version="1.1" id="Layer_1" xmlns:serif="http://www.serif.com/"
	 xmlns="http://www.w3.org/2000/svg" xmlns:xlink="http://www.w3.org/1999/xlink" x="0px" y="0px" viewBox="0 0 612 792"
	 style="enable-background:new 0 0 612 792;" xml:space="preserve">
<style type="text/css">
	.st0{fill-rule:evenodd;clip-rule:evenodd;}
</style>
<path class="st0" d="M304.8,702h0.3H305H304.8L304.8,702z M307,702L307,702h0.2H307z M303.9,702h0.3H304H303.9z M308,702h-0.2H308
	L308,702z M303,702h0.2H303L303,702L303,702z M309,702h-0.2H309L309,702L309,702z M310,702L310,702h0.2H310L310,702z M301.8,702h0.3
	H302H301.8L301.8,702z M310.9,702h-0.2H310.9L310.9,702L310.9,702z M300.9,702h0.3H300.9L300.9,702L300.9,702z M311.9,701.9h-0.2
	H311.9L311.9,701.9z M300,701.9h0.3H300L300,701.9L300,701.9z M298.9,701.9h0.3l0,0H298.9L298.9,701.9z M312.9,701.9L312.9,701.9
	h0.2H312.9z M297.9,701.9h0.4h-0.1H297.9z M313.9,701.9h-0.1h0.4H313.9z M314.9,701.9h-0.2h0.4H314.9L314.9,701.9z M297,701.9h0.4
	h-0.2H297L297,701.9z M296.1,701.8h0.3H296.1h-0.2H296.1z M315.9,701.8h-0.3H315.9h0.2H315.9z M316.8,701.8h-0.1h0.4H316.8z
	 M294.9,701.8h0.4h-0.1H294.9z M294,701.8h0.4h-0.2H294z M317.8,701.8h-0.2h0.4H317.8z M293.1,701.7h0.4H293.1L293.1,701.7
	L293.1,701.7z M318.8,701.7h-0.3H318.8L318.8,701.7L318.8,701.7z M291.9,701.7h0.5h-0.1H291.9z M319.8,701.7h-0.1h0.5H319.8
	L319.8,701.7z M291,701.6h0.5h-0.2H291z M320.8,701.6h-0.2h0.5H320.8z M290.1,701.6h0.5h-0.3H290.1z M321.7,701.6h-0.3h0.5H321.7z
	 M322.7,701.6h-0.4H322.7h0.4H322.7L322.7,701.6z M289.3,701.6h0.4H289.3h-0.5H289.3L289.3,701.6z M323.7,701.5h-0.2h0.5H323.7z
	 M288,701.5h0.5h-0.2H288z M287.2,701.4h0.5h-0.3H287.2L287.2,701.4z M324.7,701.4h-0.3h0.5H324.7L324.7,701.4z M286.3,701.4h0.4
	H286.3h-0.4H286.3L286.3,701.4z M325.6,701.4h-0.4H325.6h0.4H325.6L325.6,701.4z M326.6,701.3h-0.1h0.5H326.6L326.6,701.3z
	 M285.1,701.3h0.5h-0.1H285.1z M284.2,701.2h0.5h-0.2H284.2L284.2,701.2z M327.6,701.2h-0.2h0.5H327.6z M283.3,701.2h0.4H283.3
	L283.3,701.2L283.3,701.2z M328.6,701.2h-0.3H328.6L328.6,701.2L328.6,701.2z M282.2,701.1h0.4h-0.1H282.2z M329.5,701.1
	L329.5,701.1h0.3H329.5z M330.5,701h-0.2h0.4H330.5z M281.3,701h0.4h-0.2H281.3L281.3,701z M280.4,700.9h0.3H280.4L280.4,700.9z
	 M331.5,701h-0.2H331.5L331.5,701z M279.5,700.9L279.5,700.9L279.5,700.9L279.5,700.9L279.5,700.9z M332.4,700.9L332.4,700.9
	L332.4,700.9L332.4,700.9L332.4,700.9z M333.4,700.8L333.4,700.8h0.1H333.4L333.4,700.8z M278.5,700.8h0.2h-0.1H278.5L278.5,700.8z
	 M277.6,700.7h0.2H277.6L277.6,700.7z M334.4,700.7h-0.1H334.4L334.4,700.7z M258.2,698.3C112,675.3,0,548.6,0,396
	C0,227.1,137.1,90,306,90s306,137.1,306,306c0,152.6-112,279.3-258.2,302.3V484.5h71.3l13.6-88.5h-84.9v-57.4
	c0-24.2,11.9-47.8,49.9-47.8h38.6v-75.3c0,0-35-6-68.5-6c-69.9,0-115.6,42.4-115.6,119.1V396h-77.7v88.5h77.7L258.2,698.3
	L258.2,698.3z"/>
</svg>
